<svg id="Group_4" data-name="Group 4" xmlns="http://www.w3.org/2000/svg" viewBox="0 0 104.891 22.2">
  <defs>
    <style>
      .cls-1 {
        fill: #fff;
      }
    </style>
  </defs>
  <g id="Group_2" data-name="Group 2">
    <path id="Path_12" data-name="Path 12" class="cls-1" d="M18.65,10.69v1.18c0,.75-.24,1.06-1.34,1.06H4.81c.12,4.18,1.06,5.13,4.89,5.13h6.74a.524.524,0,0,1,.59.59v2.44a.6.6,0,0,1-.55.67,48.145,48.145,0,0,1-7.06.43C1.73,22.2,0,19.99,0,11.12,0,2.21,1.73,0,9.42,0,16.84,0,18.57,2.13,18.65,10.69ZM4.81,9.5h9.03c-.04-4.26-.91-5.36-4.42-5.36C5.76,4.14,4.85,5.24,4.81,9.5Z"/>
    <path id="Path_13" data-name="Path 13" class="cls-1" d="M36.71.43c.39.08.59.28.59.63V3.39c0,.39-.2.59-.63.59H29.42c-1.66,0-2.6.51-2.6,1.73v.47c0,.95.51,1.7,2.17,2.33l5.17,1.89c3.47,1.3,4.02,3.31,4.02,5.76v.51c0,4.5-3,5.52-8.16,5.52-3.43,0-6.39-.24-7.69-.35-.47-.04-.59-.24-.59-.59V18.81c0-.43.16-.63.63-.63h7.65c2.64,0,3.47-.32,3.47-1.7v-.39c0-.95-.47-1.58-2.25-2.25l-5.2-1.97a5.644,5.644,0,0,1-3.94-5.8V5.28C22.1.98,25.65,0,30.58,0A40.887,40.887,0,0,1,36.71.43Z"/>
    <path id="Path_14" data-name="Path 14" class="cls-1" d="M60.45.2c.43,0,.55.12.47.63L56.46,17.55c-1.07,4.14-1.38,4.65-5.8,4.65-4.1,0-4.46-.47-5.6-4.65L40.46.83c-.08-.51.08-.63.51-.63h3.9c.32,0,.35.12.51.63l4.1,15.69c.39,1.38.51,1.58,1.18,1.58.83,0,.99-.2,1.34-1.58L55.98.83c.12-.51.2-.63.51-.63h3.96Z"/>
    <path id="Path_15" data-name="Path 15" class="cls-1" d="M82.37,10.69v1.18c0,.75-.24,1.06-1.34,1.06H68.53c.12,4.18,1.06,5.13,4.89,5.13h6.74a.524.524,0,0,1,.59.59v2.44a.6.6,0,0,1-.55.67,48.145,48.145,0,0,1-7.06.43c-7.69,0-9.42-2.21-9.42-11.08C63.73,2.21,65.46,0,73.15,0,80.56,0,82.3,2.13,82.37,10.69ZM68.53,9.5h9.03c-.04-4.26-.91-5.36-4.42-5.36C69.48,4.14,68.57,5.24,68.53,9.5Z"/>
  </g>
  <g id="Group_3" data-name="Group 3">
    <path id="Path_16" data-name="Path 16" class="cls-1" d="M104.89,11.12c0,8.87-1.73,11.08-9.62,11.08s-9.58-2.21-9.58-11.08C85.69,2.21,87.39,0,95.27,0S104.89,2.21,104.89,11.12Zm-14.43,0c0,5.56.59,6.94,4.81,6.94s4.81-1.38,4.81-6.94c0-5.6-.59-6.98-4.81-6.98S90.46,5.52,90.46,11.12Z"/>
  </g>
</svg>
