<svg version="1.1" viewBox="0.0 0.0 1280.0 720.0" fill="none" stroke="none" stroke-linecap="square" stroke-miterlimit="10" xmlns:xlink="http://www.w3.org/1999/xlink" xmlns="http://www.w3.org/2000/svg"><clipPath id="g59a583e6cf_0_3.0"><path d="m0 0l1280.0 0l0 720.0l-1280.0 0l0 -720.0z" clip-rule="nonzero"/></clipPath><g clip-path="url(#g59a583e6cf_0_3.0)"><path fill="#ffffff" d="m0 0l1280.0 0l0 720.0l-1280.0 0z" fill-rule="evenodd"/><path fill="#000000" fill-opacity="0.0" d="m582.50397 81.049866l0 0c0 -17.80357 25.741821 -32.236217 57.496033 -32.236217l0 0c31.754211 0 57.496033 14.432648 57.496033 32.236217l0 0c0 17.803574 -25.741821 32.23622 -57.496033 32.23622l0 0c-31.754211 0 -57.496033 -14.432648 -57.496033 -32.23622z" fill-rule="evenodd"/><path stroke="#00a7ff" stroke-width="4.0" stroke-linejoin="round" stroke-linecap="butt" d="m582.50397 81.049866l0 0c0 -17.80357 25.741821 -32.236217 57.496033 -32.236217l0 0c31.754211 0 57.496033 14.432648 57.496033 32.236217l0 0c0 17.803574 -25.741821 32.23622 -57.496033 32.23622l0 0c-31.754211 0 -57.496033 -14.432648 -57.496033 -32.23622z" fill-rule="evenodd"/><path fill="#000000" d="m612.4016 82.563614l8.421875 -4.703125q0.203125 -0.109375 0.3125 -0.109375q0.15625 0 0.265625 0.125q0.125 0.109375 0.125 0.265625q0 0.234375 -0.3125 0.40625l-7.21875 4.015625l7.203125 4.0q0.3125 0.1875 0.3125 0.40625q0 0.171875 -0.125 0.28125q-0.109375 0.109375 -0.265625 0.109375q-0.09375 0 -0.296875 -0.109375l-8.421875 -4.6875zm20.01123 -6.234375l0 10.859375l1.046875 0q0.28125 0 0.40625 0.109375q0.125 0.109375 0.125 0.28125q0 0.171875 -0.125 0.28125q-0.125 0.109375 -0.40625 0.109375l-1.828125 0l0 -1.546875q-1.359375 1.859375 -3.453125 1.859375q-1.046875 0 -2.015625 -0.5625q-0.96875 -0.5625 -1.53125 -1.59375q-0.5625 -1.046875 -0.5625 -2.15625q0 -1.109375 0.5625 -2.140625q0.5625 -1.046875 1.53125 -1.609375q0.96875 -0.5625 2.03125 -0.5625q2.046875 0 3.4375 1.859375l0 -4.40625l-1.046875 0q-0.28125 0 -0.40625 -0.109375q-0.125 -0.109375 -0.125 -0.28125q0 -0.171875 0.125 -0.28125q0.125 -0.109375 0.40625 -0.109375l1.828125 0zm-0.78125 7.640625q0 -1.484375 -1.015625 -2.5q-1.0 -1.03125 -2.375 -1.03125q-1.390625 0 -2.390625 1.03125q-1.0 1.015625 -1.0 2.5q0 1.46875 1.0 2.5q1.0 1.03125 2.390625 1.03125q1.375 0 2.375 -1.03125q1.015625 -1.03125 1.015625 -2.5zm8.76123 -8.03125l0 2.015625l-1.15625 0l0 -2.015625l1.15625 0zm0.015625 4.0l0 7.25l3.0625 0q0.296875 0 0.40625 0.109375q0.125 0.109375 0.125 0.28125q0 0.171875 -0.125 0.28125q-0.109375 0.109375 -0.40625 0.109375l-6.90625 0q-0.265625 0 -0.390625 -0.109375q-0.125 -0.109375 -0.125 -0.28125q0 -0.171875 0.125 -0.28125q0.125 -0.109375 0.390625 -0.109375l3.0625 0l0 -6.46875l-2.265625 0q-0.28125 0 -0.40625 -0.109375q-0.125 -0.109375 -0.125 -0.28125q0 -0.171875 0.125 -0.28125q0.125 -0.109375 0.40625 -0.109375l3.046875 0zm11.683105 8.03125l-1.328125 0l-3.203125 -7.25l-0.796875 0q-0.28125 0 -0.40625 -0.109375q-0.109375 -0.109375 -0.109375 -0.28125q0 -0.171875 0.109375 -0.28125q0.125 -0.109375 0.40625 -0.109375l2.921875 0q0.28125 0 0.40625 0.109375q0.125 0.109375 0.125 0.28125q0 0.171875 -0.125 0.28125q-0.125 0.109375 -0.40625 0.109375l-1.28125 0l2.859375 6.46875l0.34375 0l2.796875 -6.46875l-1.296875 0q-0.28125 0 -0.40625 -0.109375q-0.109375 -0.109375 -0.109375 -0.28125q0 -0.171875 0.109375 -0.28125q0.125 -0.109375 0.40625 -0.109375l2.921875 0q0.296875 0 0.40625 0.109375q0.125 0.109375 0.125 0.28125q0 0.171875 -0.125 0.28125q-0.109375 0.109375 -0.40625 0.109375l-0.78125 0l-3.15625 7.25zm15.51123 -5.40625l-8.4375 4.6875q-0.203125 0.109375 -0.296875 0.109375q-0.15625 0 -0.28125 -0.109375q-0.109375 -0.109375 -0.109375 -0.28125q0 -0.21875 0.3125 -0.40625l7.21875 -4.0l-7.203125 -4.015625q-0.328125 -0.171875 -0.328125 -0.40625q0 -0.15625 0.109375 -0.265625q0.125 -0.125 0.28125 -0.125q0.109375 0 0.3125 0.109375l8.421875 4.703125z" fill-rule="nonzero"/><path fill="#000000" fill-opacity="0.0" d="m9.488189 266.2349l0 0c0 -17.803558 25.741863 -32.236206 57.496063 -32.236206l0 0c31.754196 0 57.496063 14.432648 57.496063 32.236206l0 0c0 17.803589 -25.741867 32.236237 -57.496063 32.236237l0 0c-31.7542 0 -57.496063 -14.432648 -57.496063 -32.236237z" fill-rule="evenodd"/><path stroke="#00a7ff" stroke-width="4.0" stroke-linejoin="round" stroke-linecap="butt" d="m9.488189 266.2349l0 0c0 -17.803558 25.741863 -32.236206 57.496063 -32.236206l0 0c31.754196 0 57.496063 14.432648 57.496063 32.236206l0 0c0 17.803589 -25.741867 32.236237 -57.496063 32.236237l0 0c-31.7542 0 -57.496063 -14.432648 -57.496063 -32.236237z" fill-rule="evenodd"/><path fill="#000000" d="m45.086792 267.74866l8.421875 -4.703125q0.203125 -0.109375 0.3125 -0.109375q0.15625 0 0.265625 0.125q0.125 0.109375 0.125 0.265625q0 0.234375 -0.3125 0.40625l-7.21875 4.015625l7.203125 4.0q0.3125 0.1875 0.3125 0.40625q0 0.171875 -0.125 0.28125q-0.109375 0.109375 -0.265625 0.109375q-0.09375 0 -0.296875 -0.109375l-8.421875 -4.6875zm13.636227 -6.234375l0 4.796875q0.734375 -0.8125 1.40625 -1.140625q0.6875 -0.328125 1.546875 -0.328125q0.90625 0 1.53125 0.328125q0.640625 0.3125 1.0625038 0.984375q0.4375 0.65625 0.4375 1.390625l0 4.828125l0.859375 0q0.296875 0 0.40625 0.109375q0.125 0.109375 0.125 0.28125q0 0.171875 -0.125 0.28125q-0.109375 0.109375 -0.40625 0.109375l-2.5312538 0q-0.28125 0 -0.40625 -0.109375q-0.109375 -0.109375 -0.109375 -0.28125q0 -0.171875 0.109375 -0.28125q0.125 -0.109375 0.40625 -0.109375l0.875 0l0 -4.78125q0 -0.84375 -0.609375 -1.40625q-0.609375 -0.5625 -1.6875 -0.5625q-0.859375 0 -1.453125 0.421875q-0.4375 0.296875 -1.4375 1.390625l0 4.9375l0.875 0q0.28125 0 0.390625 0.109375q0.125 0.109375 0.125 0.28125q0 0.171875 -0.125 0.28125q-0.109375 0.109375 -0.390625 0.109375l-2.5468712 0q-0.265625 0 -0.390625 -0.109375q-0.125 -0.109375 -0.125 -0.28125q0 -0.171875 0.125 -0.28125q0.125 -0.109375 0.390625 -0.109375l0.890625 0l0 -10.078125l-1.046875 0q-0.28125 0 -0.40625 -0.109375q-0.125 -0.109375 -0.125 -0.28125q0 -0.171875 0.125 -0.28125q0.125 -0.109375 0.40625 -0.109375l1.8281212 0zm14.354984 -0.15625l0 11.015625l2.671875 0q0.265625 0 0.390625 0.109375q0.125 0.109375 0.125 0.28125q0 0.171875 -0.125 0.28125q-0.125 0.109375 -0.390625 0.109375l-6.125 0q-0.28125 0 -0.40625 -0.109375q-0.125 -0.109375 -0.125 -0.28125q0 -0.171875 0.125 -0.28125q0.125 -0.109375 0.40625 -0.109375l2.671875 0l0 -9.9375l-2.546875 0.796875q-0.1875 0.046875 -0.265625 0.046875q-0.140625 0 -0.265625 -0.109375q-0.109375 -0.125 -0.109375 -0.28125q0 -0.140625 0.09375 -0.25q0.078125 -0.078125 0.3125 -0.15625l3.5625 -1.125zm15.808105 6.390625l-8.4375 4.6875q-0.203125 0.109375 -0.296875 0.109375q-0.15625 0 -0.28125 -0.109375q-0.109375 -0.109375 -0.109375 -0.28125q0 -0.21875 0.3125 -0.40625l7.21875 -4.0l-7.203125 -4.015625q-0.328125 -0.171875 -0.328125 -0.40625q0 -0.15625 0.109375 -0.265625q0.125 -0.125 0.28125 -0.125q0.109375 0 0.3125 0.109375l8.421875 4.703125z" fill-rule="nonzero"/><path fill="#000000" fill-opacity="0.0" d="m3.3307087 437.40814l0 0c0 -17.803589 28.498661 -32.236237 63.653545 -32.236237l0 0c35.154877 0 63.65355 14.432648 63.65355 32.236237l0 0c0 17.803558 -28.498672 32.236206 -63.65355 32.236206l0 0c-35.154884 0 -63.653545 -14.432648 -63.653545 -32.236206z" fill-rule="evenodd"/><path stroke="#00a7ff" stroke-width="4.0" stroke-linejoin="round" stroke-linecap="butt" d="m3.3307087 437.40814l0 0c0 -17.803589 28.498661 -32.236237 63.653545 -32.236237l0 0c35.154877 0 63.65355 14.432648 63.65355 32.236237l0 0c0 17.803558 -28.498672 32.236206 -63.65355 32.236206l0 0c-35.154884 0 -63.653545 -14.432648 -63.653545 -32.236206z" fill-rule="evenodd"/><path fill="#000000" d="m34.434937 421.6875l2.03125 0l1.578125 4.0q0.09375 0.203125 0.09375 0.328125q0 0.1875 -0.140625 0.328125q-0.140625 0.140625 -0.34375 0.140625q-0.265625 0 -0.5 -0.375l-2.71875 -4.421875zm4.015625 0l2.015625 0l1.59375 4.0q0.078125 0.203125 0.078125 0.328125q0 0.1875 -0.140625 0.328125q-0.125 0.140625 -0.328125 0.140625q-0.265625 0 -0.5 -0.375l-2.71875 -4.421875zm14.07373 6.390625l-5.171875 0l0 4.46875l1.046875 0q0.28125 0 0.390625 0.109375q0.125 0.109375 0.125 0.28125q0 0.171875 -0.125 0.28125q-0.109375 0.109375 -0.390625 0.109375l-2.703125 0q-0.28125 0 -0.40625 -0.109375q-0.109375 -0.109375 -0.109375 -0.28125q0 -0.171875 0.109375 -0.28125q0.125 -0.109375 0.40625 -0.109375l0.875 0l0 -9.296875l-0.484375 0q-0.28125 0 -0.40625 -0.09375q-0.125 -0.109375 -0.125 -0.296875q0 -0.171875 0.125 -0.28125q0.125 -0.109375 0.40625 -0.109375l2.3125 0q0.28125 0 0.390625 0.109375q0.125 0.109375 0.125 0.28125q0 0.1875 -0.125 0.296875q-0.109375 0.09375 -0.390625 0.09375l-1.046875 0l0 4.046875l5.171875 0l0 -4.046875l-1.046875 0q-0.28125 0 -0.40625 -0.09375q-0.109375 -0.109375 -0.109375 -0.296875q0 -0.171875 0.109375 -0.28125q0.125 -0.109375 0.40625 -0.109375l2.3125 0q0.296875 0 0.40625 0.109375q0.125 0.109375 0.125 0.28125q0 0.1875 -0.125 0.296875q-0.109375 0.09375 -0.40625 0.09375l-0.484375 0l0 9.296875l0.890625 0q0.265625 0 0.390625 0.109375q0.125 0.109375 0.125 0.28125q0 0.171875 -0.125 0.28125q-0.125 0.109375 -0.390625 0.109375l-2.71875 0q-0.28125 0 -0.40625 -0.109375q-0.109375 -0.109375 -0.109375 -0.28125q0 -0.171875 0.109375 -0.28125q0.125 -0.109375 0.40625 -0.109375l1.046875 0l0 -4.46875zm12.97998 1.421875l-7.953125 0q0.21875 1.515625 1.28125 2.4375q1.0625 0.921875 2.625 0.921875q0.875 0 1.828125 -0.28125q0.953125 -0.296875 1.5625 -0.765625q0.171875 -0.140625 0.296875 -0.140625q0.15625 0 0.265625 0.125q0.109375 0.109375 0.109375 0.265625q0 0.15625 -0.15625 0.296875q-0.4375 0.46875 -1.578125 0.875q-1.140625 0.40625 -2.328125 0.40625q-2.0 0 -3.34375 -1.3125q-1.34375 -1.3125 -1.34375 -3.1875q0 -1.6875 1.25 -2.90625q1.265625 -1.21875 3.125 -1.21875q1.90625 0 3.140625 1.25q1.234375 1.25 1.21875 3.234375zm-0.796875 -0.796875q-0.234375 -1.28125 -1.21875 -2.09375q-0.984375 -0.8125 -2.34375 -0.8125q-1.375 0 -2.359375 0.8125q-0.96875 0.796875 -1.21875 2.09375l7.140625 0zm8.370605 -7.015625l0 10.859375l3.0625 0q0.28125 0 0.40625 0.109375q0.125 0.109375 0.125 0.28125q0 0.171875 -0.125 0.28125q-0.125 0.109375 -0.40625 0.109375l-6.90625 0q-0.28125 0 -0.40625 -0.109375q-0.109375 -0.109375 -0.109375 -0.28125q0 -0.171875 0.109375 -0.28125q0.125 -0.109375 0.40625 -0.109375l3.0625 0l0 -10.078125l-2.234375 0q-0.28125 0 -0.40625 -0.109375q-0.125 -0.109375 -0.125 -0.28125q0 -0.171875 0.109375 -0.28125q0.125 -0.109375 0.421875 -0.109375l3.015625 0zm11.401855 0l0 10.859375l3.0625076 0q0.28125 0 0.40625 0.109375q0.125 0.109375 0.125 0.28125q0 0.171875 -0.125 0.28125q-0.125 0.109375 -0.40625 0.109375l-6.9062576 0q-0.28125 0 -0.40625 -0.109375q-0.109375 -0.109375 -0.109375 -0.28125q0 -0.171875 0.109375 -0.28125q0.125 -0.109375 0.40625 -0.109375l3.0625 0l0 -10.078125l-2.234375 0q-0.28125 0 -0.40625 -0.109375q-0.125 -0.109375 -0.125 -0.28125q0 -0.171875 0.109375 -0.28125q0.125 -0.109375 0.421875 -0.109375l3.015625 0zm15.370613 7.640625q0 1.78125 -1.28125 3.046875q-1.28125 1.265625 -3.078125 1.265625q-1.8125 0 -3.09375 -1.265625q-1.265625 -1.28125 -1.265625 -3.046875q0 -1.78125 1.265625 -3.046875q1.28125 -1.265625 3.09375 -1.265625q1.796875 0 3.078125 1.265625q1.28125 1.25 1.28125 3.046875zm-0.796875 0q0 -1.46875 -1.046875 -2.5q-1.03125 -1.03125 -2.515625 -1.03125q-1.484375 0 -2.53125 1.046875q-1.046875 1.03125 -1.046875 2.484375q0 1.453125 1.046875 2.5q1.046875 1.03125 2.53125 1.03125q1.484375 0 2.515625 -1.03125q1.046875 -1.046875 1.046875 -2.5z" fill-rule="nonzero"/><path fill="#000000" d="m41.903687 455.32812l-1.234375 0l-2.203125 -7.703125l-2.15625 7.703125l-1.234375 0l-1.140625 -10.078125l-0.296875 0q-0.28125 0 -0.40625 -0.09375q-0.109375 -0.109375 -0.109375 -0.296875q0 -0.171875 0.109375 -0.28125q0.125 -0.109375 0.40625 -0.109375l2.890625 0q0.296875 0 0.40625 0.109375q0.125 0.109375 0.125 0.28125q0 0.1875 -0.125 0.296875q-0.109375 0.09375 -0.40625 0.09375l-1.8125 0l1.03125 9.1875l2.109375 -7.5625l1.1875 0l2.171875 7.5625l1.0 -9.1875l-1.828125 0q-0.265625 0 -0.390625 -0.09375q-0.125 -0.109375 -0.125 -0.296875q0 -0.171875 0.125 -0.28125q0.125 -0.109375 0.390625 -0.109375l2.890625 0q0.28125 0 0.390625 0.109375q0.125 0.109375 0.125 0.28125q0 0.1875 -0.125 0.296875q-0.109375 0.09375 -0.390625 0.09375l-0.296875 0l-1.078125 10.078125zm12.339355 -4.0q0 1.78125 -1.28125 3.046875q-1.28125 1.265625 -3.078125 1.265625q-1.8125 0 -3.09375 -1.265625q-1.265625 -1.28125 -1.265625 -3.046875q0 -1.78125 1.265625 -3.046875q1.28125 -1.265625 3.09375 -1.265625q1.796875 0 3.078125 1.265625q1.28125 1.25 1.28125 3.046875zm-0.796875 0q0 -1.46875 -1.046875 -2.5q-1.03125 -1.03125 -2.515625 -1.03125q-1.484375 0 -2.53125 1.046875q-1.046875 1.03125 -1.046875 2.484375q0 1.453125 1.046875 2.5q1.046875 1.03125 2.53125 1.03125q1.484375 0 2.515625 -1.03125q1.046875 -1.046875 1.046875 -2.5zm6.9018555 -4.03125l0 1.96875q1.53125 -1.375 2.28125 -1.765625q0.75 -0.40625 1.390625 -0.40625q0.703125 0 1.296875 0.46875q0.59375 0.46875 0.59375 0.71875q0 0.171875 -0.109375 0.296875q-0.109375 0.109375 -0.296875 0.109375q-0.09375 0 -0.15625 -0.03125q-0.0625 -0.03125 -0.234375 -0.21875q-0.328125 -0.3125 -0.578125 -0.4375q-0.234375 -0.125 -0.46875 -0.125q-0.5 0 -1.21875 0.40625q-0.71875 0.40625 -2.5 2.0l0 4.265625l3.453125 0q0.28125 0 0.40625 0.109375q0.125 0.109375 0.125 0.28125q0 0.171875 -0.125 0.28125q-0.125 0.109375 -0.40625 0.109375l-6.109375 0q-0.28125 0 -0.40625 -0.109375q-0.109375 -0.109375 -0.109375 -0.265625q0 -0.15625 0.109375 -0.265625q0.109375 -0.109375 0.40625 -0.109375l1.875 0l0 -6.5l-1.4375 0q-0.28125 0 -0.40625 -0.109375q-0.109375 -0.109375 -0.109375 -0.28125q0 -0.171875 0.109375 -0.28125q0.125 -0.109375 0.40625 -0.109375l2.21875 0zm12.72998 -3.609375l0 10.859375l3.0625 0q0.28125 0 0.40625 0.109375q0.125 0.109375 0.125 0.28125q0 0.171875 -0.125 0.28125q-0.125 0.109375 -0.40625 0.109375l-6.90625 0q-0.28125 0 -0.40625 -0.109375q-0.109375 -0.109375 -0.109375 -0.28125q0 -0.171875 0.109375 -0.28125q0.125 -0.109375 0.40625 -0.109375l3.0625 0l0 -10.078125l-2.234375 0q-0.28125 0 -0.40625 -0.109375q-0.125 -0.109375 -0.125 -0.28125q0 -0.171875 0.109375 -0.28125q0.125 -0.109375 0.421875 -0.109375l3.015625 0zm14.823738 0l0 10.859375l1.046875 0q0.28125 0 0.40625 0.109375q0.125 0.109375 0.125 0.28125q0 0.171875 -0.125 0.28125q-0.125 0.109375 -0.40625 0.109375l-1.828125 0l0 -1.546875q-1.3593826 1.859375 -3.4531326 1.859375q-1.046875 0 -2.015625 -0.5625q-0.96875 -0.5625 -1.53125 -1.59375q-0.5625 -1.046875 -0.5625 -2.15625q0 -1.109375 0.5625 -2.140625q0.5625 -1.046875 1.53125 -1.609375q0.96875 -0.5625 2.03125 -0.5625q2.046875 0 3.4375076 1.859375l0 -4.40625l-1.046875 0q-0.28125763 0 -0.40625763 -0.109375q-0.125 -0.109375 -0.125 -0.28125q0 -0.171875 0.125 -0.28125q0.125 -0.109375 0.40625763 -0.109375l1.828125 0zm-0.78125 7.640625q0 -1.484375 -1.015625 -2.5q-1.0000076 -1.03125 -2.3750076 -1.03125q-1.390625 0 -2.390625 1.03125q-1.0 1.015625 -1.0 2.5q0 1.46875 1.0 2.5q1.0 1.03125 2.390625 1.03125q1.375 0 2.3750076 -1.03125q1.015625 -1.03125 1.015625 -2.5zm6.3862305 -7.640625l2.0 0l-2.71875 4.421875q-0.21875 0.375 -0.5 0.375q-0.1875 0 -0.328125 -0.140625q-0.140625 -0.140625 -0.140625 -0.328125q0 -0.125 0.078125 -0.328125l1.609375 -4.0zm4.0 0l2.015625 0l-2.71875 4.421875q-0.21875 0.375 -0.5 0.375q-0.203125 0 -0.34375 -0.140625q-0.125 -0.140625 -0.125 -0.328125q0 -0.125 0.078125 -0.328125l1.59375 -4.0z" fill-rule="nonzero"/><path fill="#000000" fill-opacity="0.0" d="m740.874 266.23972l0 0c0 -17.803574 25.741882 -32.23622 57.496033 -32.23622l0 0c31.754211 0 57.496094 14.432648 57.496094 32.23622l0 0c0 17.803589 -25.741882 32.236237 -57.496094 32.236237l0 0c-31.75415 0 -57.496033 -14.432648 -57.496033 -32.236237z" fill-rule="evenodd"/><path stroke="#00a7ff" stroke-width="4.0" stroke-linejoin="round" stroke-linecap="butt" d="m740.874 266.23972l0 0c0 -17.803574 25.741882 -32.23622 57.496033 -32.23622l0 0c31.754211 0 57.496094 14.432648 57.496094 32.23622l0 0c0 17.803589 -25.741882 32.236237 -57.496094 32.236237l0 0c-31.75415 0 -57.496033 -14.432648 -57.496033 -32.236237z" fill-rule="evenodd"/><path fill="#000000" d="m776.4726 267.75348l8.421875 -4.703125q0.203125 -0.109375 0.3125 -0.109375q0.15625 0 0.265625 0.125q0.125 0.109375 0.125 0.265625q0 0.234375 -0.3125 0.40625l-7.21875 4.015625l7.203125 4.0q0.3125 0.1875 0.3125 0.40625q0 0.171875 -0.125 0.28125q-0.109375 0.109375 -0.265625 0.109375q-0.09375 0 -0.296875 -0.109375l-8.421875 -4.6875zm18.870605 5.40625l0 -1.140625q-1.609375 1.453125 -3.453125 1.453125q-1.140625 0 -1.734375 -0.625q-0.78125 -0.8125 -0.78125 -1.90625l0 -5.03125l-1.046875 0q-0.28125 0 -0.40625 -0.109375q-0.109375 -0.109375 -0.109375 -0.28125q0 -0.171875 0.109375 -0.28125q0.125 -0.109375 0.40625 -0.109375l1.828125 0l0 5.8125q0 0.765625 0.484375 1.265625q0.484375 0.484375 1.203125 0.484375q1.90625 0 3.5 -1.75l0 -5.03125l-1.4375 0q-0.28125 0 -0.40625 -0.109375q-0.125 -0.109375 -0.125 -0.28125q0 -0.171875 0.125 -0.28125q0.125 -0.109375 0.40625 -0.109375l2.203125 0l0 7.25l0.671875 0q0.265625 0 0.390625 0.109375q0.125 0.109375 0.125 0.28125q0 0.171875 -0.125 0.28125q-0.125 0.109375 -0.390625 0.109375l-1.4375 0zm9.120605 -11.640625l0 10.859375l3.0625 0q0.28125 0 0.40625 0.109375q0.125 0.109375 0.125 0.28125q0 0.171875 -0.125 0.28125q-0.125 0.109375 -0.40625 0.109375l-6.90625 0q-0.28125 0 -0.40625 -0.109375q-0.109375 -0.109375 -0.109375 -0.28125q0 -0.171875 0.109375 -0.28125q0.125 -0.109375 0.40625 -0.109375l3.0625 0l0 -10.078125l-2.234375 0q-0.28125 0 -0.40625 -0.109375q-0.125 -0.109375 -0.125 -0.28125q0 -0.171875 0.109375 -0.28125q0.125 -0.109375 0.421875 -0.109375l3.015625 0zm15.808105 6.234375l-8.4375 4.6875q-0.203125 0.109375 -0.296875 0.109375q-0.15625 0 -0.28125 -0.109375q-0.109375 -0.109375 -0.109375 -0.28125q0 -0.21875 0.3125 -0.40625l7.21875 -4.0l-7.203125 -4.015625q-0.328125 -0.171875 -0.328125 -0.40625q0 -0.15625 0.109375 -0.265625q0.125 -0.125 0.28125 -0.125q0.109375 0 0.3125 0.109375l8.421875 4.703125z" fill-rule="nonzero"/><path fill="#000000" fill-opacity="0.0" d="m323.51968 451.42432l0 0c0 -17.803558 25.741852 -32.236206 57.496063 -32.236206l0 0c31.754211 0 57.496063 14.432648 57.496063 32.236206l0 0c0 17.803589 -25.741852 32.236237 -57.496063 32.236237l0 0c-31.754211 0 -57.496063 -14.432648 -57.496063 -32.236237z" fill-rule="evenodd"/><path stroke="#00a7ff" stroke-width="4.0" stroke-linejoin="round" stroke-linecap="butt" d="m323.51968 451.42432l0 0c0 -17.803558 25.741852 -32.236206 57.496063 -32.236206l0 0c31.754211 0 57.496063 14.432648 57.496063 32.236206l0 0c0 17.803589 -25.741852 32.236237 -57.496063 32.236237l0 0c-31.754211 0 -57.496063 -14.432648 -57.496063 -32.236237z" fill-rule="evenodd"/><path fill="#000000" d="m359.1183 452.93808l8.421875 -4.703125q0.203125 -0.109375 0.3125 -0.109375q0.15625 0 0.265625 0.125q0.125 0.109375 0.125 0.265625q0 0.234375 -0.3125 0.40625l-7.21875 4.015625l7.203125 4.0q0.3125 0.1875 0.3125 0.40625q0 0.171875 -0.125 0.28125q-0.109375 0.109375 -0.265625 0.109375q-0.09375 0 -0.296875 -0.109375l-8.421875 -4.6875zm16.589355 -6.234375l0 10.859375l3.0625 0q0.28125 0 0.40625 0.109375q0.125 0.109375 0.125 0.28125q0 0.171875 -0.125 0.28125q-0.125 0.109375 -0.40625 0.109375l-6.90625 0q-0.28125 0 -0.40625 -0.109375q-0.109375 -0.109375 -0.109375 -0.28125q0 -0.171875 0.109375 -0.28125q0.125 -0.109375 0.40625 -0.109375l3.0625 0l0 -10.078125l-2.234375 0q-0.28125 0 -0.40625 -0.109375q-0.125 -0.109375 -0.125 -0.28125q0 -0.171875 0.109375 -0.28125q0.125 -0.109375 0.421875 -0.109375l3.015625 0zm11.401855 -0.390625l0 2.015625l-1.15625 0l0 -2.015625l1.15625 0zm0.015625 4.0l0 7.25l3.0625 0q0.296875 0 0.40625 0.109375q0.125 0.109375 0.125 0.28125q0 0.171875 -0.125 0.28125q-0.109375 0.109375 -0.40625 0.109375l-6.90625 0q-0.265625 0 -0.390625 -0.109375q-0.125 -0.109375 -0.125 -0.28125q0 -0.171875 0.125 -0.28125q0.125 -0.109375 0.390625 -0.109375l3.0625 0l0 -6.46875l-2.265625 0q-0.28125 0 -0.40625 -0.109375q-0.125 -0.109375 -0.125 -0.28125q0 -0.171875 0.125 -0.28125q0.125 -0.109375 0.40625 -0.109375l3.046875 0zm15.79248 2.625l-8.4375 4.6875q-0.203125 0.109375 -0.296875 0.109375q-0.15625 0 -0.28125 -0.109375q-0.109375 -0.109375 -0.109375 -0.28125q0 -0.21875 0.3125 -0.40625l7.21875 -4.0l-7.203125 -4.015625q-0.328125 -0.171875 -0.328125 -0.40625q0 -0.15625 0.109375 -0.265625q0.125 -0.125 0.28125 -0.125q0.109375 0 0.3125 0.109375l8.421875 4.703125z" fill-rule="nonzero"/><path fill="#000000" fill-opacity="0.0" d="m740.874 451.42432l0 0c0 -17.803558 25.741882 -32.236206 57.496033 -32.236206l0 0c31.754211 0 57.496094 14.432648 57.496094 32.236206l0 0c0 17.803589 -25.741882 32.236237 -57.496094 32.236237l0 0c-31.75415 0 -57.496033 -14.432648 -57.496033 -32.236237z" fill-rule="evenodd"/><path stroke="#00a7ff" stroke-width="4.0" stroke-linejoin="round" stroke-linecap="butt" d="m740.874 451.42432l0 0c0 -17.803558 25.741882 -32.236206 57.496033 -32.236206l0 0c31.754211 0 57.496094 14.432648 57.496094 32.236206l0 0c0 17.803589 -25.741882 32.236237 -57.496094 32.236237l0 0c-31.75415 0 -57.496033 -14.432648 -57.496033 -32.236237z" fill-rule="evenodd"/><path fill="#000000" d="m776.4726 452.93808l8.421875 -4.703125q0.203125 -0.109375 0.3125 -0.109375q0.15625 0 0.265625 0.125q0.125 0.109375 0.125 0.265625q0 0.234375 -0.3125 0.40625l-7.21875 4.015625l7.203125 4.0q0.3125 0.1875 0.3125 0.40625q0 0.171875 -0.125 0.28125q-0.109375 0.109375 -0.265625 0.109375q-0.09375 0 -0.296875 -0.109375l-8.421875 -4.6875zm16.589355 -6.234375l0 10.859375l3.0625 0q0.28125 0 0.40625 0.109375q0.125 0.109375 0.125 0.28125q0 0.171875 -0.125 0.28125q-0.125 0.109375 -0.40625 0.109375l-6.90625 0q-0.28125 0 -0.40625 -0.109375q-0.109375 -0.109375 -0.109375 -0.28125q0 -0.171875 0.109375 -0.28125q0.125 -0.109375 0.40625 -0.109375l3.0625 0l0 -10.078125l-2.234375 0q-0.28125 0 -0.40625 -0.109375q-0.125 -0.109375 -0.125 -0.28125q0 -0.171875 0.109375 -0.28125q0.125 -0.109375 0.421875 -0.109375l3.015625 0zm11.401855 -0.390625l0 2.015625l-1.15625 0l0 -2.015625l1.15625 0zm0.015625 4.0l0 7.25l3.0625 0q0.296875 0 0.40625 0.109375q0.125 0.109375 0.125 0.28125q0 0.171875 -0.125 0.28125q-0.109375 0.109375 -0.40625 0.109375l-6.90625 0q-0.265625 0 -0.390625 -0.109375q-0.125 -0.109375 -0.125 -0.28125q0 -0.171875 0.125 -0.28125q0.125 -0.109375 0.390625 -0.109375l3.0625 0l0 -6.46875l-2.265625 0q-0.28125 0 -0.40625 -0.109375q-0.125 -0.109375 -0.125 -0.28125q0 -0.171875 0.125 -0.28125q0.125 -0.109375 0.40625 -0.109375l3.046875 0zm15.79248 2.625l-8.4375 4.6875q-0.203125 0.109375 -0.296875 0.109375q-0.15625 0 -0.28125 -0.109375q-0.109375 -0.109375 -0.109375 -0.28125q0 -0.21875 0.3125 -0.40625l7.21875 -4.0l-7.203125 -4.015625q-0.328125 -0.171875 -0.328125 -0.40625q0 -0.15625 0.109375 -0.265625q0.125 -0.125 0.28125 -0.125q0.109375 0 0.3125 0.109375l8.421875 4.703125z" fill-rule="nonzero"/><path fill="#000000" fill-opacity="0.0" d="m1158.2284 452.59494l0 0c0 -17.803589 25.741821 -32.236237 57.49597 -32.236237l0 0c31.754272 0 57.496094 14.432648 57.496094 32.236237l0 0c0 17.803558 -25.741821 32.236206 -57.496094 32.236206l0 0c-31.75415 0 -57.49597 -14.432648 -57.49597 -32.236206z" fill-rule="evenodd"/><path stroke="#00a7ff" stroke-width="4.0" stroke-linejoin="round" stroke-linecap="butt" d="m1158.2284 452.59494l0 0c0 -17.803589 25.741821 -32.236237 57.49597 -32.236237l0 0c31.754272 0 57.496094 14.432648 57.496094 32.236237l0 0c0 17.803558 -25.741821 32.236206 -57.496094 32.236206l0 0c-31.75415 0 -57.49597 -14.432648 -57.49597 -32.236206z" fill-rule="evenodd"/><path fill="#000000" d="m1193.8269 454.10867l8.421875 -4.703125q0.203125 -0.109375 0.3125 -0.109375q0.15625 0 0.265625 0.125q0.125 0.109375 0.125 0.265625q0 0.234375 -0.3125 0.40625l-7.21875 4.015625l7.203125 4.0q0.3125 0.1875 0.3125 0.40625q0 0.171875 -0.125 0.28125q-0.109375 0.109375 -0.265625 0.109375q-0.09375 0 -0.296875 -0.109375l-8.421875 -4.6875zm16.589355 -6.234375l0 10.859375l3.0625 0q0.28125 0 0.40625 0.109375q0.125 0.109375 0.125 0.28125q0 0.171875 -0.125 0.28125q-0.125 0.109375 -0.40625 0.109375l-6.90625 0q-0.28125 0 -0.40625 -0.109375q-0.109375 -0.109375 -0.109375 -0.28125q0 -0.171875 0.109375 -0.28125q0.125 -0.109375 0.40625 -0.109375l3.0625 0l0 -10.078125l-2.234375 0q-0.28125 0 -0.40625 -0.109375q-0.125 -0.109375 -0.125 -0.28125q0 -0.171875 0.109375 -0.28125q0.125 -0.109375 0.421875 -0.109375l3.015625 0zm11.401855 -0.390625l0 2.015625l-1.15625 0l0 -2.015625l1.15625 0zm0.015625 4.0l0 7.25l3.0625 0q0.296875 0 0.40625 0.109375q0.125 0.109375 0.125 0.28125q0 0.171875 -0.125 0.28125q-0.109375 0.109375 -0.40625 0.109375l-6.90625 0q-0.265625 0 -0.390625 -0.109375q-0.125 -0.109375 -0.125 -0.28125q0 -0.171875 0.125 -0.28125q0.125 -0.109375 0.390625 -0.109375l3.0625 0l0 -6.46875l-2.265625 0q-0.28125 0 -0.40625 -0.109375q-0.125 -0.109375 -0.125 -0.28125q0 -0.171875 0.125 -0.28125q0.125 -0.109375 0.40625 -0.109375l3.046875 0zm15.79248 2.625l-8.4375 4.6875q-0.203125 0.109375 -0.296875 0.109375q-0.15625 0 -0.28125 -0.109375q-0.109375 -0.109375 -0.109375 -0.28125q0 -0.21875 0.3125 -0.40625l7.21875 -4.0l-7.203125 -4.015625q-0.328125 -0.171875 -0.328125 -0.40625q0 -0.15625 0.109375 -0.265625q0.125 -0.125 0.28125 -0.125q0.109375 0 0.3125 0.109375l8.421875 4.703125z" fill-rule="nonzero"/><path fill="#000000" fill-opacity="0.0" d="m323.51968 636.6116l0 0c0 -17.803589 25.741852 -32.236267 57.496063 -32.236267l0 0c31.754211 0 57.496063 14.432678 57.496063 32.236267l0 0c0 17.803528 -25.741852 32.236206 -57.496063 32.236206l0 0c-31.754211 0 -57.496063 -14.432678 -57.496063 -32.236206z" fill-rule="evenodd"/><path stroke="#00a7ff" stroke-width="4.0" stroke-linejoin="round" stroke-linecap="butt" d="m323.51968 636.6116l0 0c0 -17.803589 25.741852 -32.236267 57.496063 -32.236267l0 0c31.754211 0 57.496063 14.432678 57.496063 32.236267l0 0c0 17.803528 -25.741852 32.236206 -57.496063 32.236206l0 0c-31.754211 0 -57.496063 -14.432678 -57.496063 -32.236206z" fill-rule="evenodd"/><path fill="#000000" d="m365.5692 631.8909l2.03125 0l1.578125 4.0q0.09375 0.203125 0.09375 0.328125q0 0.1875 -0.140625 0.328125q-0.140625 0.140625 -0.34375 0.140625q-0.265625 0 -0.5 -0.375l-2.71875 -4.421875zm4.015625 0l2.015625 0l1.59375 4.0q0.078125 0.203125 0.078125 0.328125q0 0.1875 -0.140625 0.328125q-0.125 0.140625 -0.328125 0.140625q-0.265625 0 -0.5 -0.375l-2.71875 -4.421875zm11.82373 -0.15625l0 11.015625l2.671875 0q0.265625 0 0.390625 0.109375q0.125 0.109375 0.125 0.28125q0 0.171875 -0.125 0.28125q-0.125 0.109375 -0.390625 0.109375l-6.125 0q-0.28125 0 -0.40625 -0.109375q-0.125 -0.109375 -0.125 -0.28125q0 -0.171875 0.125 -0.28125q0.125 -0.109375 0.40625 -0.109375l2.671875 0l0 -9.9375l-2.546875 0.796875q-0.1875 0.046875 -0.265625 0.046875q-0.140625 0 -0.265625 -0.109375q-0.109375 -0.125 -0.109375 -0.28125q0 -0.140625 0.09375 -0.25q0.078125 -0.078125 0.3125 -0.15625l3.5625 -1.125zm9.026855 0.15625l2.0 0l-2.71875 4.421875q-0.21875 0.375 -0.5 0.375q-0.1875 0 -0.328125 -0.140625q-0.140625 -0.140625 -0.140625 -0.328125q0 -0.125 0.078125 -0.328125l1.609375 -4.0zm4.0 0l2.015625 0l-2.71875 4.421875q-0.21875 0.375 -0.5 0.375q-0.203125 0 -0.34375 -0.140625q-0.125 -0.140625 -0.125 -0.328125q0 -0.125 0.078125 -0.328125l1.59375 -4.0z" fill-rule="nonzero"/><path fill="#000000" fill-opacity="0.0" d="m740.874 636.6116l0 0c0 -17.803589 25.741882 -32.236267 57.496033 -32.236267l0 0c31.754211 0 57.496094 14.432678 57.496094 32.236267l0 0c0 17.803528 -25.741882 32.236206 -57.496094 32.236206l0 0c-31.75415 0 -57.496033 -14.432678 -57.496033 -32.236206z" fill-rule="evenodd"/><path stroke="#00a7ff" stroke-width="4.0" stroke-linejoin="round" stroke-linecap="butt" d="m740.874 636.6116l0 0c0 -17.803589 25.741882 -32.236267 57.496033 -32.236267l0 0c31.754211 0 57.496094 14.432678 57.496094 32.236267l0 0c0 17.803528 -25.741882 32.236206 -57.496094 32.236206l0 0c-31.75415 0 -57.496033 -14.432678 -57.496033 -32.236206z" fill-rule="evenodd"/><path fill="#000000" d="m782.9235 631.8909l2.03125 0l1.578125 4.0q0.09375 0.203125 0.09375 0.328125q0 0.1875 -0.140625 0.328125q-0.140625 0.140625 -0.34375 0.140625q-0.265625 0 -0.5 -0.375l-2.71875 -4.421875zm4.015625 0l2.015625 0l1.59375 4.0q0.078125 0.203125 0.078125 0.328125q0 0.1875 -0.140625 0.328125q-0.125 0.140625 -0.328125 0.140625q-0.265625 0 -0.5 -0.375l-2.71875 -4.421875zm8.07373 10.859375l5.984375 0l0 -0.296875q0 -0.28125 0.109375 -0.40625q0.109375 -0.125 0.296875 -0.125q0.15625 0 0.265625 0.125q0.125 0.125 0.125 0.40625l0 1.078125l-7.53125 0l0 -1.15625q2.375 -2.125 4.609375 -4.34375q1.046875 -1.015625 1.4375 -1.5q0.390625 -0.484375 0.53125 -0.84375q0.15625 -0.375 0.15625 -0.75q0 -1.0 -0.8125 -1.765625q-0.8125 -0.78125 -1.953125 -0.78125q-1.015625 0 -1.8125 0.59375q-0.78125 0.578125 -1.015625 1.453125q-0.046875 0.21875 -0.140625 0.28125q-0.109375 0.09375 -0.25 0.09375q-0.15625 0 -0.265625 -0.109375q-0.109375 -0.109375 -0.109375 -0.25q0 -0.453125 0.484375 -1.203125q0.484375 -0.765625 1.34375 -1.203125q0.859375 -0.4375 1.765625 -0.4375q1.453125 0 2.5 1.015625q1.046875 1.0 1.046875 2.28125q0 0.546875 -0.171875 1.0q-0.171875 0.4375 -0.609375 0.984375q-0.421875 0.53125 -1.515625 1.609375q-2.734375 2.703125 -4.46875 4.203125l0 0.046875zm12.776855 -10.859375l2.0 0l-2.71875 4.421875q-0.21875 0.375 -0.5 0.375q-0.1875 0 -0.328125 -0.140625q-0.140625 -0.140625 -0.140625 -0.328125q0 -0.125 0.078125 -0.328125l1.609375 -4.0zm4.0 0l2.015625 0l-2.71875 4.421875q-0.21875 0.375 -0.5 0.375q-0.203125 0 -0.34375 -0.140625q-0.125 -0.140625 -0.125 -0.328125q0 -0.125 0.078125 -0.328125l1.59375 -4.0z" fill-rule="nonzero"/><path fill="#000000" fill-opacity="0.0" d="m1158.2284 636.6116l0 0c0 -17.803589 25.741821 -32.236267 57.49597 -32.236267l0 0c31.754272 0 57.496094 14.432678 57.496094 32.236267l0 0c0 17.803528 -25.741821 32.236206 -57.496094 32.236206l0 0c-31.75415 0 -57.49597 -14.432678 -57.49597 -32.236206z" fill-rule="evenodd"/><path stroke="#00a7ff" stroke-width="4.0" stroke-linejoin="round" stroke-linecap="butt" d="m1158.2284 636.6116l0 0c0 -17.803589 25.741821 -32.236267 57.49597 -32.236267l0 0c31.754272 0 57.496094 14.432678 57.496094 32.236267l0 0c0 17.803528 -25.741821 32.236206 -57.496094 32.236206l0 0c-31.75415 0 -57.49597 -14.432678 -57.49597 -32.236206z" fill-rule="evenodd"/><path fill="#000000" d="m1200.2778 631.8909l2.03125 0l1.578125 4.0q0.09375 0.203125 0.09375 0.328125q0 0.1875 -0.140625 0.328125q-0.140625 0.140625 -0.34375 0.140625q-0.265625 0 -0.5 -0.375l-2.71875 -4.421875zm4.015625 0l2.015625 0l1.59375 4.0q0.078125 0.203125 0.078125 0.328125q0 0.1875 -0.140625 0.328125q-0.125 0.140625 -0.328125 0.140625q-0.265625 0 -0.5 -0.375l-2.71875 -4.421875zm13.026855 5.296875q1.078125 0.484375 1.640625 1.328125q0.578125 0.84375 0.578125 1.75q0 1.40625 -1.140625 2.484375q-1.140625 1.0625 -2.84375 1.0625q-1.0 0 -2.078125 -0.421875q-1.078125 -0.4375 -1.5 -0.875q-0.140625 -0.15625 -0.140625 -0.328125q0 -0.140625 0.09375 -0.25q0.109375 -0.109375 0.265625 -0.109375q0.140625 0 0.328125 0.140625q1.4375 1.0625 3.046875 1.0625q1.359375 0 2.265625 -0.84375q0.921875 -0.859375 0.921875 -1.890625q0 -0.703125 -0.453125 -1.359375q-0.453125 -0.671875 -1.296875 -1.0625q-0.84375 -0.390625 -1.703125 -0.390625q-0.28125 0 -0.40625 -0.09375q-0.109375 -0.109375 -0.109375 -0.28125q0 -0.171875 0.109375 -0.28125q0.109375 -0.109375 0.34375 -0.109375l0.671875 0q1.046875 0 1.71875 -0.640625q0.6875 -0.640625 0.6875 -1.484375q0 -0.875 -0.71875 -1.53125q-0.703125 -0.671875 -1.859375 -0.671875q-0.796875 0 -1.484375 0.28125q-0.671875 0.28125 -1.078125 0.75q-0.15625 0.1875 -0.234375 0.234375q-0.078125 0.046875 -0.171875 0.046875q-0.15625 0 -0.28125 -0.109375q-0.109375 -0.109375 -0.109375 -0.265625q0 -0.359375 0.8125 -0.9375q1.125 -0.78125 2.546875 -0.78125q1.484375 0 2.421875 0.890625q0.953125 0.875 0.953125 2.109375q0 0.78125 -0.453125 1.484375q-0.453125 0.6875 -1.34375 1.09375zm7.8237305 -5.296875l2.0 0l-2.71875 4.421875q-0.21875 0.375 -0.5 0.375q-0.1875 0 -0.328125 -0.140625q-0.140625 -0.140625 -0.140625 -0.328125q0 -0.125 0.078125 -0.328125l1.609375 -4.0zm4.0 0l2.015625 0l-2.71875 4.421875q-0.21875 0.375 -0.5 0.375q-0.203125 0 -0.34375 -0.140625q-0.125 -0.140625 -0.125 -0.328125q0 -0.125 0.078125 -0.328125l1.59375 -4.0z" fill-rule="nonzero"/><path fill="#000000" fill-opacity="0.0" d="m640.0 113.28609l-573.0079 120.72441" fill-rule="evenodd"/><path stroke="#00a7ff" stroke-width="3.0" stroke-linejoin="round" stroke-linecap="butt" d="m640.0 113.28609l-555.39453 117.013535" fill-rule="evenodd"/><path fill="#00a7ff" stroke="#00a7ff" stroke-width="3.0" stroke-linecap="butt" d="m83.58389 225.45088l-12.30027 7.6554565l14.343391 2.042038z" fill-rule="evenodd"/><path fill="#000000" fill-opacity="0.0" d="m640.0 113.28609l158.36218 120.72441" fill-rule="evenodd"/><path stroke="#00a7ff" stroke-width="3.0" stroke-linejoin="round" stroke-linecap="butt" d="m640.0 113.28609l144.04742 109.81178" fill-rule="evenodd"/><path fill="#00a7ff" stroke="#00a7ff" stroke-width="3.0" stroke-linecap="butt" d="m781.0433 227.03857l13.831116 4.3130493l-7.822876 -12.194473z" fill-rule="evenodd"/><path fill="#000000" fill-opacity="0.0" d="m66.98425 298.47113l0 106.70865" fill-rule="evenodd"/><path stroke="#00a7ff" stroke-width="3.0" stroke-linejoin="round" stroke-linecap="butt" d="m66.98425 298.47113l0 88.70865" fill-rule="evenodd"/><path fill="#00a7ff" stroke="#00a7ff" stroke-width="3.0" stroke-linecap="butt" d="m62.029057 387.17978l4.9551964 13.614319l4.9551926 -13.614319z" fill-rule="evenodd"/><path fill="#000000" fill-opacity="0.0" d="m798.37006 298.47595l-417.3543 120.724396" fill-rule="evenodd"/><path stroke="#00a7ff" stroke-width="3.0" stroke-linejoin="round" stroke-linecap="butt" d="m798.37006 298.47595l-400.06317 115.72275" fill-rule="evenodd"/><path fill="#00a7ff" stroke="#00a7ff" stroke-width="3.0" stroke-linecap="butt" d="m396.93 409.43863l-11.701263 8.54306l14.455048 0.9770508z" fill-rule="evenodd"/><path fill="#000000" fill-opacity="0.0" d="m798.37006 298.47595l0 120.724396" fill-rule="evenodd"/><path stroke="#00a7ff" stroke-width="3.0" stroke-linejoin="round" stroke-linecap="butt" d="m798.37006 298.47595l0 102.724396" fill-rule="evenodd"/><path fill="#00a7ff" stroke="#00a7ff" stroke-width="3.0" stroke-linecap="butt" d="m793.41486 401.20035l4.9552 13.614288l4.9552 -13.614288z" fill-rule="evenodd"/><path fill="#000000" fill-opacity="0.0" d="m798.37006 298.47595l417.3543 121.88974" fill-rule="evenodd"/><path stroke="#00a7ff" stroke-width="3.0" stroke-linejoin="round" stroke-linecap="butt" d="m798.37006 298.47595l400.0761 116.84357" fill-rule="evenodd"/><path fill="#00a7ff" stroke="#00a7ff" stroke-width="3.0" stroke-linecap="butt" d="m1197.057 420.07602l14.45752 -0.93981934l-11.679199 -8.573151z" fill-rule="evenodd"/><path fill="#000000" fill-opacity="0.0" d="m381.01575 483.66055l0 120.724396" fill-rule="evenodd"/><path stroke="#00a7ff" stroke-width="3.0" stroke-linejoin="round" stroke-linecap="butt" d="m381.01575 483.66055l0 102.724396" fill-rule="evenodd"/><path fill="#00a7ff" stroke="#00a7ff" stroke-width="3.0" stroke-linecap="butt" d="m376.06055 586.38495l4.9552 13.614319l4.9552 -13.614319z" fill-rule="evenodd"/><path fill="#000000" fill-opacity="0.0" d="m798.37006 483.66055l0 120.724396" fill-rule="evenodd"/><path stroke="#00a7ff" stroke-width="3.0" stroke-linejoin="round" stroke-linecap="butt" d="m798.37006 483.66055l0 102.724396" fill-rule="evenodd"/><path fill="#00a7ff" stroke="#00a7ff" stroke-width="3.0" stroke-linecap="butt" d="m793.41486 586.38495l4.9552 13.614319l4.9552 -13.614319z" fill-rule="evenodd"/><path fill="#000000" fill-opacity="0.0" d="m1215.7244 484.83115l0 119.55905" fill-rule="evenodd"/><path stroke="#00a7ff" stroke-width="3.0" stroke-linejoin="round" stroke-linecap="butt" d="m1215.7244 484.83115l0 101.55905" fill-rule="evenodd"/><path fill="#00a7ff" stroke="#00a7ff" stroke-width="3.0" stroke-linecap="butt" d="m1210.7692 586.3902l4.9552 13.614319l4.9552 -13.614319z" fill-rule="evenodd"/></g></svg>